<mxfile host="app.diagrams.net" modified="2022-12-20T12:41:30.226Z" agent="5.0 (Macintosh; Intel Mac OS X 10_15_7) AppleWebKit/537.36 (KHTML, like Gecko) Chrome/108.0.0.0 Safari/537.36" version="20.7.4" etag="fP6CH4vMSvlhqByY9gws" type="github">
  <diagram id="y2CvP6GonxeoeTeIEjBP" name="Page-1">
    <mxGraphModel dx="2003" dy="1111" grid="1" gridSize="10" guides="1" tooltips="1" connect="1" arrows="1" fold="1" page="1" pageScale="1" pageWidth="827" pageHeight="1169" math="0" shadow="0">
      <root>
        <mxCell id="0" />
        <mxCell id="1" parent="0" />
        <mxCell id="nW5VyZYwAFcputkdOKiJ-1" value="" style="rounded=0;whiteSpace=wrap;html=1;" vertex="1" parent="1">
          <mxGeometry x="40" y="40" width="280" height="470" as="geometry" />
        </mxCell>
        <mxCell id="nW5VyZYwAFcputkdOKiJ-2" value="" style="rounded=0;whiteSpace=wrap;html=1;" vertex="1" parent="1">
          <mxGeometry x="510" y="40" width="280" height="470" as="geometry" />
        </mxCell>
        <mxCell id="nW5VyZYwAFcputkdOKiJ-3" value="&lt;font style=&quot;font-size: 18px;&quot;&gt;Client-facing&lt;/font&gt;" style="text;html=1;strokeColor=none;fillColor=none;align=center;verticalAlign=middle;whiteSpace=wrap;rounded=0;" vertex="1" parent="1">
          <mxGeometry x="115" y="50" width="130" height="30" as="geometry" />
        </mxCell>
        <mxCell id="nW5VyZYwAFcputkdOKiJ-4" value="&lt;span style=&quot;font-size: 18px;&quot;&gt;Technical&lt;/span&gt;" style="text;html=1;strokeColor=none;fillColor=none;align=center;verticalAlign=middle;whiteSpace=wrap;rounded=0;" vertex="1" parent="1">
          <mxGeometry x="585" y="50" width="130" height="30" as="geometry" />
        </mxCell>
        <mxCell id="nW5VyZYwAFcputkdOKiJ-5" value="" style="rounded=0;whiteSpace=wrap;html=1;fontSize=18;" vertex="1" parent="1">
          <mxGeometry x="50" y="90" width="260" height="60" as="geometry" />
        </mxCell>
        <mxCell id="nW5VyZYwAFcputkdOKiJ-6" value="" style="shape=actor;whiteSpace=wrap;html=1;fontSize=18;" vertex="1" parent="1">
          <mxGeometry x="394" y="30" width="40" height="60" as="geometry" />
        </mxCell>
        <mxCell id="nW5VyZYwAFcputkdOKiJ-9" value="&lt;font style=&quot;font-size: 18px;&quot;&gt;Project manager&lt;/font&gt;" style="text;html=1;strokeColor=none;fillColor=none;align=center;verticalAlign=middle;whiteSpace=wrap;rounded=0;" vertex="1" parent="1">
          <mxGeometry x="349" y="100" width="130" height="30" as="geometry" />
        </mxCell>
        <mxCell id="nW5VyZYwAFcputkdOKiJ-10" value="" style="rounded=0;whiteSpace=wrap;html=1;fontSize=18;" vertex="1" parent="1">
          <mxGeometry x="50" y="160" width="260" height="60" as="geometry" />
        </mxCell>
        <mxCell id="nW5VyZYwAFcputkdOKiJ-11" value="" style="rounded=0;whiteSpace=wrap;html=1;fontSize=18;" vertex="1" parent="1">
          <mxGeometry x="50" y="230" width="260" height="60" as="geometry" />
        </mxCell>
        <mxCell id="nW5VyZYwAFcputkdOKiJ-12" value="" style="rounded=0;whiteSpace=wrap;html=1;fontSize=18;" vertex="1" parent="1">
          <mxGeometry x="50" y="300" width="260" height="60" as="geometry" />
        </mxCell>
        <mxCell id="nW5VyZYwAFcputkdOKiJ-13" value="" style="rounded=0;whiteSpace=wrap;html=1;fontSize=18;" vertex="1" parent="1">
          <mxGeometry x="50" y="370" width="260" height="60" as="geometry" />
        </mxCell>
        <mxCell id="nW5VyZYwAFcputkdOKiJ-14" value="" style="rounded=0;whiteSpace=wrap;html=1;fontSize=18;" vertex="1" parent="1">
          <mxGeometry x="50" y="440" width="260" height="60" as="geometry" />
        </mxCell>
      </root>
    </mxGraphModel>
  </diagram>
</mxfile>
